<svg version="1.0" xmlns="http://www.w3.org/2000/svg" width="800.000000" height="800.000000" viewBox="0 0 800.000000 800.000000" preserveAspectRatio="xMidYMid meet">
  <metadata>
    <rdf:RDF xmlns:rdf="http://www.w3.org/1999/02/22-rdf-syntax-ns#" xmlns:rdfs="http://www.w3.org/2000/01/rdf-schema#" xmlns:dc="http://purl.org/dc/elements/1.1/">
      <rdf:Description dc:format="image/svg+xml" dc:Label="1" dc:ContentProducer="001191330110MACRLGPT8B00000" dc:ProduceID="399859167" dc:ReservedCode1="lEXB39gU0GPbO7/I1ZzrqCvaQJuDQ4nVNX3WwSyCzmI=" dc:ContentPropagator="001191330110MACRLGPT8B00000" dc:PropagateID="399859167" dc:ReservedCode2="lEXB39gU0GPbO7/I1ZzrqCvaQJuDQ4nVNX3WwSyCzmI="/>
    </rdf:RDF>
  </metadata>
  <g transform="translate(0.000000,800.000000) scale(0.100000,-0.100000)" fill="#000000" stroke="none">
    <path d="M2185 6359 c-71 -10 -200 -52 -270 -87 -178 -88 -339 -266 -409 -453 -59 -156 -56 -73 -56 -1821 0 -1538 1 -1606 19 -1689 59 -265 223 -470 472 -588 95 -46 165 -66 283 -81 55 -8 644 -10 1861 -8 l1780 4 85 22 c266 71 480 254 587 502 67 157 64 59 61 1875 -3 1856 5 1674 -89 1863 -109 217 -310 377 -561 444 l-83 23 -1810 1 c-1000 1 -1837 -2 -1870 -7z m578 -872 c142 -60 183 -250 79 -360 -37 -39 -94 -67 -151 -74 -118 -14 -241 97 -241 218 0 93 46 170 125 209 48 23 141 26 188 7z m2722 -47 c32 -16 61 -41 80 -68 27 -39 30 -52 30 -117 0 -65 -3 -78 -30 -116 -18 -26 -50 -53 -80 -68 l-49 -26 -926 0 c-730 0 -933 3 -961 13 -47 16 -105 72 -125 120 -10 24 -14 57 -12 95 7 91 70 166 161 188 18 4 444 6 947 6 l915 -2 50 -25z m-8 -818 c48 -25 78 -57 98 -104 13 -32 15 -109 15 -543 0 -478 -1 -508 -19 -543 -26 -51 -68 -88 -120 -107 -80 -28 -148 -13 -216 47 -74 66 -75 70 -75 611 0 341 3 481 12 511 15 50 92 131 139 145 46 14 120 6 166 -17z m-919 -48 c79 -33 132 -110 132 -194 0 -88 -38 -152 -115 -193 l-40 -22 -929 -3 c-610 -2 -947 1 -984 8 -61 11 -112 45 -149 100 -52 75 -38 185 31 254 22 23 57 47 76 53 25 8 319 11 988 12 840 1 957 -1 990 -15z m-40 -800 c145 -60 190 -256 84 -367 -110 -116 -299 -85 -367 60 -23 47 -26 66 -22 109 16 157 167 256 305 198z m-916 -69 c123 -87 123 -263 0 -350 l-44 -30 -488 0 -488 0 -44 30 c-110 78 -126 227 -34 320 23 22 57 46 76 52 24 8 180 11 507 10 l471 -2 44 -30z m-844 -777 c81 -24 141 -113 142 -206 0 -130 -95 -226 -225 -226 -136 0 -232 103 -223 240 10 153 148 240 306 192z m2686 -29 c170 -43 211 -273 67 -374 l-43 -30 -962 0 -962 0 -37 25 c-116 78 -130 237 -29 333 60 57 28 56 1015 56 624 1 922 -2 951 -10z"/>
  </g>
</svg>